<?xml version="1.0" standalone="no"?>
<!DOCTYPE svg PUBLIC "-//W3C//DTD SVG 20010904//EN"
 "http://www.w3.org/TR/2001/REC-SVG-20010904/DTD/svg10.dtd">
<svg version="1.0" xmlns="http://www.w3.org/2000/svg"
 width="315.000000pt" height="315.000000pt" viewBox="0 0 315.000000 315.000000"
 preserveAspectRatio="xMidYMid meet">
<metadata>
Created by potrace 1.11, written by Peter Selinger 2001-2013
</metadata>
<g transform="translate(0.000000,315.000000) scale(0.100000,-0.100000)"
fill="#000000" stroke="none">
<path d="M1515 2787 c-25 -10 -342 -192 -450 -258 -16 -10 -37 -22 -45 -26
-14 -6 -318 -182 -350 -202 -8 -5 -69 -41 -135 -80 -127 -73 -143 -86 -169
-138 -14 -29 -16 -103 -16 -686 l0 -653 29 -45 c26 -42 63 -66 497 -319 258
-150 478 -278 489 -284 11 -6 27 -16 35 -23 36 -27 140 -73 167 -73 43 0 88
18 173 68 87 51 148 87 280 164 52 31 227 133 387 227 161 94 295 171 298 171
14 0 59 49 76 82 18 36 19 66 19 689 -1 615 -2 653 -19 687 -10 21 -27 44 -37
53 -11 9 -237 144 -504 299 -267 156 -498 291 -515 301 -95 57 -149 69 -210
46z"/>
</g>
</svg>
