<?xml version="1.0" standalone="no"?>
<!DOCTYPE svg PUBLIC "-//W3C//DTD SVG 20010904//EN"
 "http://www.w3.org/TR/2001/REC-SVG-20010904/DTD/svg10.dtd">
<svg version="1.0" xmlns="http://www.w3.org/2000/svg"
 width="700.000000pt" height="700.000000pt" viewBox="0 0 700.000000 700.000000"
 preserveAspectRatio="xMidYMid meet">
<metadata>
Created by potrace 1.11, written by Peter Selinger 2001-2013
</metadata>
<g transform="translate(0.000000,700.000000) scale(0.100000,-0.100000)"
fill="#000000" stroke="none">
<path d="M3478 6403 c-1 -5 -23 -26 -48 -47 -140 -122 -250 -226 -470 -446
-243 -242 -307 -309 -447 -465 -141 -159 -237 -274 -453 -545 -57 -71 -243
-338 -320 -459 -219 -343 -379 -671 -467 -956 -108 -350 -132 -695 -69 -980
19 -87 27 -118 35 -133 5 -9 22 -53 37 -97 98 -281 342 -607 644 -859 47 -39
87 -73 90 -76 8 -8 82 -63 120 -89 19 -13 62 -42 95 -65 299 -207 739 -422
1156 -565 l117 -39 115 38 c286 96 673 268 868 386 31 19 59 34 62 34 8 0 241
149 307 196 560 398 889 869 965 1383 15 97 20 329 10 411 -16 128 -18 140
-46 263 -54 246 -195 595 -347 862 -25 44 -52 91 -59 105 -8 14 -23 39 -33 55
-11 17 -27 44 -36 60 -80 143 -437 631 -588 805 -17 20 -49 57 -71 84 -22 27
-49 58 -60 71 -11 12 -36 40 -55 61 -19 22 -73 82 -120 134 -107 120 -576 590
-694 695 -49 44 -94 85 -101 92 -79 76 -127 106 -137 86z"/>
</g>
</svg>
